<svg width="512" height="512" viewBox="0 0 512 512" fill="none" xmlns="http://www.w3.org/2000/svg">
<rect width="512" height="512" fill="#181A20"/>
<circle cx="255.8" cy="255.8" r="197.3" fill="#0B0E11" stroke="#FCD535" stroke-width="15"/>
<path d="M141.521 342.313C139.341 342.313 137.488 341.659 135.962 340.351C134.654 338.825 134 336.972 134 334.792V179.794C134 177.614 134.654 175.87 135.962 174.562C137.488 173.036 139.341 172.273 141.521 172.273H156.236C158.416 172.273 160.16 173.036 161.468 174.562C162.994 175.87 163.757 177.614 163.757 179.794V191.239C168.771 184.481 175.093 179.14 182.723 175.216C190.353 171.074 199.509 169.003 210.191 169.003C234.825 168.785 252.265 178.813 262.511 199.087C267.525 189.931 274.828 182.628 284.42 177.178C294.012 171.728 304.912 169.003 317.12 169.003C328.456 169.003 338.702 171.619 347.858 176.851C357.232 182.083 364.535 190.04 369.767 200.722C375.217 211.186 377.942 224.375 377.942 240.289V334.792C377.942 336.972 377.179 338.825 375.653 340.351C374.345 341.659 372.601 342.313 370.421 342.313H355.052C352.872 342.313 351.019 341.659 349.493 340.351C348.185 338.825 347.531 336.972 347.531 334.792V243.232C347.531 231.024 345.787 221.432 342.299 214.456C338.811 207.48 334.124 202.575 328.238 199.741C322.352 196.907 315.921 195.49 308.945 195.49C303.277 195.49 297.5 196.907 291.614 199.741C285.728 202.575 280.823 207.48 276.899 214.456C273.193 221.432 271.34 231.024 271.34 243.232V334.792C271.34 336.972 270.577 338.825 269.051 340.351C267.743 341.659 265.999 342.313 263.819 342.313H248.45C246.27 342.313 244.417 341.659 242.891 340.351C241.583 338.825 240.929 336.972 240.929 334.792V243.232C240.929 231.024 239.076 221.432 235.37 214.456C231.664 207.48 226.868 202.575 220.982 199.741C215.096 196.907 208.883 195.49 202.343 195.49C196.675 195.49 190.898 196.907 185.012 199.741C179.126 202.575 174.221 207.48 170.297 214.456C166.591 221.432 164.738 230.915 164.738 242.905V334.792C164.738 336.972 163.975 338.825 162.449 340.351C161.141 341.659 159.397 342.313 157.217 342.313H141.521Z" fill="white"/>
</svg>
